<svg width="512" height="512" viewBox="0 0 512 512" fill="none" xmlns="http://www.w3.org/2000/svg">
<g clip-path="url(#clip0_8_8)">
<path d="M503.974 122.969L263.334 1.72743C261.083 0.593832 258.562 0 256 0C253.438 0 250.917 0.593832 248.666 1.72743L8.0256 122.969C5.59824 124.191 3.57159 125.998 2.15916 128.198C0.74674 130.398 0.000824489 132.91 0 135.47V376.53C0.000824489 379.09 0.74674 381.602 2.15916 383.802C3.57159 386.002 5.59824 387.809 8.0256 389.031L248.666 510.273C250.917 511.406 253.438 512 256 512C258.562 512 261.083 511.406 263.334 510.273L503.974 389.031C506.402 387.809 508.428 386.002 509.841 383.802C511.253 381.602 511.999 379.09 512 376.53V135.47C511.999 132.91 511.253 130.398 509.841 128.198C508.428 125.998 506.402 124.191 503.974 122.969ZM480 360.518C480 363.076 479.256 365.588 477.846 367.788C476.436 369.988 474.412 371.795 471.987 373.019L263.347 478.248C261.093 479.386 258.567 479.982 256 479.982C253.433 479.982 250.907 479.386 248.653 478.248L40.0128 373.019C37.5878 371.795 35.5638 369.988 34.1537 367.788C32.7436 365.588 31.9996 363.076 32 360.518V151.482C31.9996 148.924 32.7436 146.412 34.1537 144.212C35.5638 142.012 37.5878 140.205 40.0128 138.981L248.653 33.7517C250.907 32.6139 253.433 32.0178 256 32.0178C258.567 32.0178 261.093 32.6139 263.347 33.7517L471.987 138.981C474.412 140.205 476.436 142.012 477.846 144.212C479.256 146.412 480 148.924 480 151.482V360.518Z" fill="url(#paint0_linear_8_8)"/>
</g>
<defs>
<linearGradient id="paint0_linear_8_8" x1="67.84" y1="123.348" x2="434.333" y2="450.893" gradientUnits="userSpaceOnUse">
<stop offset="0.6"/>
<stop offset="1" stop-color="#51731F"/>
</linearGradient>
<clipPath id="clip0_8_8">
<rect width="512" height="512" fill="white"/>
</clipPath>
</defs>
</svg>
